<?xml version="1.0" encoding="UTF-8" standalone="no"?>
<!-- Created with Inkscape (http://www.inkscape.org/) -->

<svg
   xmlns:dc="http://purl.org/dc/elements/1.1/"
   xmlns:cc="http://creativecommons.org/ns#"
   xmlns:rdf="http://www.w3.org/1999/02/22-rdf-syntax-ns#"
   xmlns:svg="http://www.w3.org/2000/svg"
   xmlns="http://www.w3.org/2000/svg"
   xmlns:sodipodi="http://sodipodi.sourceforge.net/DTD/sodipodi-0.dtd"
   xmlns:inkscape="http://www.inkscape.org/namespaces/inkscape"
   width="203.67502mm"
   height="93.361549mm"
   viewBox="0 0 203.67502 93.361549"
   version="1.1"
   id="svg8"
   inkscape:version="0.92.4 (5da689c313, 2019-01-14)"
   sodipodi:docname="404.svg">
  <defs
     id="defs2" />
  <sodipodi:namedview
     id="base"
     pagecolor="#ffffff"
     bordercolor="#666666"
     borderopacity="1.0"
     inkscape:pageopacity="0.0"
     inkscape:pageshadow="2"
     inkscape:zoom="1.979899"
     inkscape:cx="493.3088"
     inkscape:cy="111.34534"
     inkscape:document-units="mm"
     inkscape:current-layer="layer1"
     showgrid="false"
     fit-margin-top="0"
     fit-margin-left="0"
     fit-margin-right="0"
     fit-margin-bottom="0"
     inkscape:window-width="2880"
     inkscape:window-height="1659"
     inkscape:window-x="-13"
     inkscape:window-y="-13"
     inkscape:window-maximized="1" />
  <metadata
     id="metadata5">
    <rdf:RDF>
      <cc:Work
         rdf:about="">
        <dc:format>image/svg+xml</dc:format>
        <dc:type
           rdf:resource="http://purl.org/dc/dcmitype/StillImage" />
        <dc:title></dc:title>
      </cc:Work>
    </rdf:RDF>
  </metadata>
  <g
     inkscape:label="Calque 1"
     inkscape:groupmode="layer"
     id="layer1"
     transform="translate(-7.8794822,-115.72076)">
    <path
       style="fill:#000000;stroke-width:0.13229167"
       d="m 19.930066,208.91288 c -0.804172,-0.2516 -1.446744,-0.80269 -1.827998,-1.56777 -1.044319,-2.09568 0.438323,-4.50614 2.771658,-4.50614 1.747393,0 3.113208,1.37045 3.105949,3.1165 -0.0056,1.33966 -0.912979,2.57889 -2.159403,2.94904 -0.790957,0.23489 -1.160948,0.23652 -1.890206,0.008 z m 7.624389,-2.85394 v -0.52917 l 0.826823,-7.9e-4 c 0.454753,-4e-4 1.317956,-0.039 1.918229,-0.0858 l 1.091407,-0.085 v 0.53035 0.53035 l -0.694532,0.0834 c -0.381992,0.0459 -1.245195,0.0839 -1.918229,0.0846 l -1.223698,0.001 z m 7.612964,-0.74113 c -0.04917,-0.26209 -0.07068,-0.4945 -0.0478,-0.51646 0.02288,-0.022 0.696447,-0.1968 1.496811,-0.38855 0.800365,-0.19175 2.318412,-0.64728 3.373438,-1.01228 1.055026,-0.365 2.009189,-0.69357 2.120363,-0.73015 0.139955,-0.046 0.255599,0.0814 0.375946,0.41416 0.0956,0.26437 0.153465,0.49807 0.128596,0.51933 -0.386027,0.33 -6.470096,2.19049 -7.163213,2.19049 -0.11888,0 -0.229574,-0.18564 -0.284145,-0.47654 z m 10.816927,-3.81907 c -0.121583,-0.25496 -0.195509,-0.48285 -0.164277,-0.50641 0.03123,-0.0236 0.771157,-0.43059 1.644282,-0.90449 0.873125,-0.4739 2.297197,-1.30369 3.164606,-1.84397 0.867407,-0.54028 1.599073,-0.98233 1.625922,-0.98233 0.02685,0 0.170211,0.19172 0.318577,0.42605 l 0.269759,0.42606 -1.101931,0.7149 c -1.327377,0.86116 -3.375109,2.04562 -4.622844,2.67397 l -0.913032,0.45979 z M 20.579384,199.7095 c -0.722649,-0.16614 -1.004828,-0.44223 -2.663849,-2.60639 -5.528277,-7.21152 -9.0046661,-13.34515 -9.8346495,-17.35192 -0.764028,-3.68837 0.6881892,-8.10179 3.6351055,-11.04743 3.788902,-3.78726 9.51131,-4.92267 14.383256,-2.85385 3.908944,1.65989 6.795029,5.12757 7.755979,9.31892 0.381304,1.66313 0.322668,4.02774 -0.13778,5.55625 -1.257751,4.17524 -4.594861,9.85315 -9.639097,16.40039 -1.902148,2.46891 -2.400091,2.83665 -3.498965,2.58403 z m 1.414285,-17.47445 c 0.892588,-0.19143 2.086326,-1.01384 2.61319,-1.80033 1.150257,-1.71706 1.003236,-3.88173 -0.365347,-5.37918 -2.120487,-2.32015 -5.791549,-1.79768 -7.142796,1.01657 -0.504617,1.05097 -0.596635,1.84979 -0.332675,2.888 0.395893,1.55714 1.448156,2.68066 2.965048,3.16585 0.878702,0.28106 1.353881,0.30397 2.26258,0.10909 z m 33.749178,13.2897 c -0.151167,-0.19217 -0.27485,-0.39688 -0.27485,-0.4549 0,-0.058 0.729257,-0.66752 1.620573,-1.35444 0.891315,-0.68691 2.214356,-1.73795 2.94009,-2.33564 l 1.31952,-1.08671 0.300397,0.37539 c 0.165218,0.20646 0.300693,0.41764 0.301054,0.4693 6.61e-4,0.0979 -4.277602,3.55473 -5.328832,4.30563 l -0.6031,0.43079 z m 8.864619,-7.27467 c -0.15176,-0.19293 -0.275928,-0.39301 -0.275928,-0.44462 0,-0.0516 1.243784,-1.22923 2.763963,-2.61694 l 2.763965,-2.5231 0.377962,0.39801 0.377964,0.39802 -0.475599,0.41775 c -0.261579,0.22977 -1.362907,1.22945 -2.447396,2.22153 -1.084487,0.99207 -2.160168,1.96045 -2.3904,2.15195 l -0.418604,0.34818 z m 66.332924,-0.16369 -0.92604,-0.0853 0.0462,-0.52916 c 0.0254,-0.29105 0.0551,-0.53398 0.0661,-0.53985 0.011,-0.006 0.67484,0.0418 1.4752,0.10589 1.37943,0.11051 3.53291,0.0607 5.06016,-0.11697 l 0.69453,-0.0808 v 0.53236 c 0,0.49621 -0.0292,0.53773 -0.42995,0.61139 -0.67337,0.12377 -4.9582,0.19708 -5.9862,0.10242 z m -6.28385,-1.13025 c -0.76399,-0.23574 -1.83555,-0.61845 -2.38125,-0.85045 -1.19454,-0.50784 -3.08056,-1.52458 -3.13468,-1.68987 -0.0214,-0.0654 0.0966,-0.2883 0.26233,-0.49538 l 0.30125,-0.37651 0.84588,0.49575 c 1.1718,0.68678 2.97213,1.45011 4.48495,1.90161 l 1.27516,0.38058 -0.0211,0.42414 c -0.0116,0.23328 -0.0711,0.47244 -0.13229,0.53145 -0.0612,0.059 -0.7363,-0.0856 -1.50028,-0.32132 z m 16.22513,-0.17872 c -0.0355,-0.12733 -0.10087,-0.35854 -0.14524,-0.51381 -0.0642,-0.22468 -0.0112,-0.29972 0.25952,-0.36768 0.71035,-0.17829 3.40149,-1.40648 4.63878,-2.11707 0.70905,-0.40721 1.29767,-0.72512 1.30803,-0.70646 0.0103,0.0187 0.12821,0.20823 0.26186,0.42125 0.23996,0.38247 0.23925,0.39037 -0.0571,0.63035 -0.7679,0.6218 -5.52954,2.88494 -6.06993,2.88494 -0.0722,0 -0.16039,-0.10418 -0.19591,-0.23152 z m -26.03291,-5.86276 c -0.5927,-0.61359 -1.72161,-1.88923 -2.50869,-2.83475 l -1.43105,-1.71914 0.35839,-0.29355 c 0.19712,-0.16146 0.41793,-0.29237 0.49069,-0.29091 0.0728,0.001 0.60854,0.60186 1.19062,1.33423 0.58209,0.73237 1.66592,1.97056 2.40852,2.75153 l 1.35018,1.41995 -0.39051,0.37413 -0.3905,0.37413 z m 35.25174,0.51986 -0.28676,-0.41046 1.41124,-1.15671 c 0.77619,-0.63619 1.97408,-1.67754 2.662,-2.3141 l 1.25076,-1.15738 0.30301,0.37867 c 0.16665,0.20826 0.30331,0.41753 0.30367,0.46502 0.001,0.19566 -5.05806,4.61391 -5.2765,4.60771 -0.0444,-0.001 -0.20969,-0.18699 -0.36742,-0.41275 z m -77.076853,-1.01198 -0.353225,-0.36869 1.015249,-0.92115 c 0.558388,-0.50664 1.849352,-1.65116 2.868807,-2.54338 l 1.853557,-1.62222 0.299182,0.36545 c 0.16455,0.201 0.301322,0.40283 0.303939,0.44851 0.0026,0.0457 -0.397079,0.43072 -0.888212,0.85564 -0.491133,0.42492 -1.737106,1.53352 -2.76883,2.46356 -1.031723,0.93003 -1.898671,1.69097 -1.926552,1.69097 -0.02788,0 -0.209641,-0.16591 -0.403915,-0.36869 z m 84.970353,-6.17979 -0.31074,-0.33078 0.3869,-0.45301 c 0.21279,-0.24916 1.27727,-1.40936 2.36552,-2.57823 l 1.9786,-2.12521 0.36484,0.34952 c 0.21499,0.20598 0.32602,0.41698 0.27034,0.51378 -0.16401,0.2851 -4.54275,4.9547 -4.6461,4.9547 -0.0542,0 -0.23846,-0.14885 -0.40936,-0.33077 z m -76.25349,-1.21307 c -0.185289,-0.25452 -0.216581,-0.40236 -0.118251,-0.55869 0.301032,-0.47858 5.789413,-3.98289 6.237923,-3.98289 0.05641,0 0.201777,0.20806 0.323043,0.46236 l 0.220483,0.46235 -0.814352,0.41109 c -1.070741,0.54051 -2.669349,1.54673 -4.134038,2.60212 -0.650643,0.46882 -1.245956,0.87431 -1.322916,0.90108 -0.07696,0.0268 -0.253311,-0.10707 -0.391892,-0.29742 z m 25.7148,-0.64571 c -1.45909,-1.47391 -2.20403,-2.02735 -3.99851,-2.97065 -0.41837,-0.21992 -0.75818,-0.44365 -0.75513,-0.49718 0.003,-0.0535 0.10862,-0.29052 0.2346,-0.52668 l 0.22906,-0.42936 0.90455,0.52858 c 0.49749,0.29072 0.93503,0.52859 0.97229,0.52859 0.22279,0 1.94839,1.39013 3.04727,2.45486 l 1.28741,1.2474 -0.39687,0.32693 c -0.21829,0.1798 -0.42814,0.32906 -0.46634,0.33168 -0.0382,0.003 -0.51445,-0.44476 -1.05833,-0.99417 z m -15.714492,-4.84261 c -0.0712,-0.2805 -0.08404,-0.53807 -0.02854,-0.57237 0.0555,-0.0343 0.659457,-0.1598 1.342118,-0.27889 0.967921,-0.16885 1.721801,-0.19964 3.424014,-0.13981 1.200547,0.0422 2.34787,0.1157 2.549608,0.16336 0.339859,0.0803 0.36043,0.12191 0.280106,0.56675 -0.04768,0.26405 -0.103567,0.49991 -0.124196,0.52413 -0.02063,0.0242 -0.615797,-0.0288 -1.322593,-0.11772 -1.487806,-0.18727 -4.114178,-0.097 -5.241425,0.18022 l -0.749644,0.18433 z m 73.466592,-1.08512 -0.39341,-0.31877 0.79029,-0.87706 c 0.43464,-0.48239 1.05232,-1.18877 1.37262,-1.56974 0.32029,-0.38097 1.05312,-1.19153 1.62849,-1.80124 l 1.04615,-1.10857 0.38781,0.37155 0.38782,0.37155 -0.85876,0.88952 c -0.47232,0.48924 -0.86132,0.93996 -0.86447,1.0016 -0.003,0.0617 -0.70264,0.84285 -1.55443,1.73601 l -1.54871,1.62392 z m 7.3287,-7.83666 -0.32072,-0.34351 1.16396,-1.11218 c 1.22357,-1.16915 4.00552,-3.49246 4.18189,-3.49246 0.10638,0 0.43315,0.34336 0.58923,0.61911 0.054,0.0954 -0.38849,0.54083 -1.13743,1.14516 -0.67418,0.54399 -1.86231,1.5602 -2.64028,2.25824 -0.77798,0.69804 -1.43733,1.26916 -1.46522,1.26916 -0.0279,0 -0.19504,-0.15458 -0.37143,-0.34352 z m 8.29388,-6.6771 c -0.13193,-0.22332 -0.21917,-0.42291 -0.19389,-0.44354 0.58899,-0.48063 3.73535,-2.03137 5.38148,-2.65236 1.03963,-0.3922 1.16309,-0.36668 1.28171,0.26492 l 0.0738,0.39275 -1.55064,0.59531 c -0.85285,0.32742 -2.2221,0.96738 -3.0428,1.42213 -0.82069,0.45476 -1.54112,0.82683 -1.60097,0.82683 -0.0599,0 -0.21675,-0.18272 -0.34865,-0.40604 z m 18.83592,-1.17023 c -1.79443,-0.37293 -2.89011,-2.2294 -2.36,-3.99871 0.19952,-0.66596 0.92273,-1.50265 1.61353,-1.86672 0.85388,-0.45 2.11795,-0.40286 2.94737,0.10994 2.07815,1.28482 2.06022,4.23412 -0.0326,5.36676 -0.7301,0.39513 -1.48569,0.53059 -2.16826,0.38873 z m -8.93691,-2.58293 c -0.0499,-0.26584 -0.0643,-0.50974 -0.032,-0.54199 0.0746,-0.0746 2.39191,-0.32057 3.0489,-0.3236 0.48847,-0.002 0.49609,0.006 0.49609,0.51133 v 0.51362 l -1.02526,0.0862 c -0.56389,0.0474 -1.33391,0.12032 -1.71114,0.162 l -0.68588,0.0758 z m 8.75664,-7.53722 c -0.62986,-0.23284 -1.24811,-0.79859 -1.48967,-1.36314 -0.24096,-0.56316 -0.23129,-1.90969 0.0206,-2.87696 0.51609,-1.98141 1.74233,-3.31304 4.93039,-5.35408 2.35975,-1.51076 2.86712,-2.02312 3.34235,-3.37522 0.3103,-0.88288 0.34151,-2.52375 0.0654,-3.44107 -0.46131,-1.53283 -1.70539,-2.76959 -3.27694,-3.25766 -0.78232,-0.24296 -1.15133,-0.27038 -3.11234,-0.23133 -2.20645,0.0439 -2.23205,0.0479 -3.10392,0.47745 -1.71212,0.84354 -2.66374,2.30991 -2.87997,4.43776 -0.12348,1.21513 -0.50511,1.817 -1.46209,2.30593 -0.91486,0.46741 -1.89872,0.33019 -2.70437,-0.37719 -0.67705,-0.59444 -0.9214,-1.3647 -0.81862,-2.58047 0.30521,-3.61073 2.39622,-6.7066 5.57614,-8.25584 1.71455,-0.83532 2.32381,-0.954 5.25031,-1.02272 3.26273,-0.0766 4.19607,0.0814 6.18967,1.04792 1.23343,0.59799 1.52487,0.81182 2.65059,1.94479 1.02264,1.02923 1.37197,1.48822 1.82465,2.39741 0.87431,1.75604 1.12497,2.9778 1.05582,5.14627 -0.0661,2.07242 -0.38619,3.24797 -1.31043,4.81272 -0.93648,1.58546 -1.92136,2.49329 -4.63938,4.27638 -2.71273,1.77962 -2.623,1.67625 -2.82064,3.24929 -0.19328,1.53825 -1.85514,2.56933 -3.28763,2.03976 z"
       id="path826"
       inkscape:connector-curvature="0" />
  </g>
</svg>
